<?xml version="1.0" encoding="UTF-8" standalone="no"?>
<svg
   xmlns:dc="http://purl.org/dc/elements/1.1/"
   xmlns:cc="http://creativecommons.org/ns#"
   xmlns:rdf="http://www.w3.org/1999/02/22-rdf-syntax-ns#"
   xmlns:svg="http://www.w3.org/2000/svg"
   xmlns="http://www.w3.org/2000/svg"
   xmlns:sodipodi="http://sodipodi.sourceforge.net/DTD/sodipodi-0.dtd"
   xmlns:inkscape="http://www.inkscape.org/namespaces/inkscape"
   version="1.1"
   width="220.7mm"
   height="144.7mm"
   viewBox=" 0 0 782.008517 512.716957"
   id="svg925"
   sodipodi:docname="caseplans (1).svg"
   inkscape:version="0.92.2 (5c3e80d, 2017-08-06)">
  <metadata
     id="metadata931">
    <rdf:RDF>
      <cc:Work
         rdf:about="">
        <dc:format>image/svg+xml</dc:format>
        <dc:type
           rdf:resource="http://purl.org/dc/dcmitype/StillImage" />
      </cc:Work>
    </rdf:RDF>
  </metadata>
  <defs
     id="defs929" />
  <sodipodi:namedview
     pagecolor="#ffffff"
     bordercolor="#666666"
     borderopacity="1"
     objecttolerance="10"
     gridtolerance="10"
     guidetolerance="10"
     inkscape:pageopacity="0"
     inkscape:pageshadow="2"
     inkscape:window-width="1920"
     inkscape:window-height="1001"
     id="namedview927"
     showgrid="false"
     inkscape:zoom="3.4522"
     inkscape:cx="383.38821"
     inkscape:cy="380.44289"
     inkscape:window-x="-9"
     inkscape:window-y="-9"
     inkscape:window-maximized="1"
     inkscape:current-layer="svg925" />
  <!-- Front-->
  <g
     transform="translate(22.5000185, 22.5000185) "
     id="g903"
     style="fill:none;stroke:#ff0000;stroke-opacity:1;stroke-width:0.09375009;stroke-miterlimit:4;stroke-dasharray:none">
    <polygon
       style="stroke:#ff0000;fill:none;stroke-width:0.09375009;stroke-opacity:1;stroke-miterlimit:4;stroke-dasharray:none"
       points="0, 0 31.889789999999998, 0 31.889789999999998, 10.62993 63.779579999999996, 10.62993 63.779579999999996, 0 85.03944, 0 85.03944, 10.62993 106.29929999999999, 10.62993 106.29929999999999, 0 127.55915999999999, 0 127.55915999999999, 10.62993 148.81902, 10.62993 148.81902, 0 170.07888, 0 170.07888, 10.62993 201.96866999999997, 10.62993 201.96866999999997, 0 233.85846, 0 233.85846, 33.661445 223.22853, 33.661445 223.22853, 67.32289 233.85846, 67.32289 233.85846, 88.58275 223.22853, 88.58275 223.22853, 109.84261000000001 233.85846, 109.84261000000001 233.85846, 131.10246999999998 223.22853, 131.10246999999998 223.22853, 164.763915 233.85846, 164.763915 233.85845999999998, 198.42536 201.96866999999997, 198.42536 201.96866999999997, 187.79543 170.07888, 187.79543 170.07888, 198.42536 148.81902, 198.42536 148.81902, 187.79543 127.55915999999999, 187.79543 127.55915999999999, 198.42536 106.29929999999999, 198.42536 106.29929999999999, 187.79543 85.03944, 187.79543 85.03944, 198.42536 63.779579999999996, 198.42536 63.779579999999996, 187.79543 31.889789999999998, 187.79543 31.889789999999998, 198.42536 0, 198.42536 0, 164.763915 10.62993, 164.763915 10.62993, 131.10246999999998 0, 131.10246999999998 0, 109.84261000000001 10.62993, 109.84261000000001 10.62993, 88.58275 0, 88.58275 0, 67.32289 10.62993, 67.32289 10.62993, 33.661445 0, 33.661445 "
       id="polygon901" />
  </g>
  <!-- Back-->
  <g
     transform="translate(256.3584785, 22.5000185) "
     id="g907"
     style="fill:none;stroke:#ff0000;stroke-opacity:1;stroke-width:0.09375009;stroke-miterlimit:4;stroke-dasharray:none">
    <polygon
       style="stroke:#ff0000;fill:none;stroke-width:0.09375009;stroke-opacity:1;stroke-miterlimit:4;stroke-dasharray:none"
       points="0, 0 31.889789999999998, 0 31.889789999999998, 10.62993 63.779579999999996, 10.62993 63.779579999999996, 0 85.03944, 0 85.03944, 10.62993 106.29929999999999, 10.62993 106.29929999999999, 0 127.55915999999999, 0 127.55915999999999, 10.62993 148.81902, 10.62993 148.81902, 0 170.07888, 0 170.07888, 10.62993 201.96866999999997, 10.62993 201.96866999999997, 0 233.85846, 0 233.85846, 33.661445 223.22853, 33.661445 223.22853, 67.32289 233.85846, 67.32289 233.85846, 88.58275 223.22853, 88.58275 223.22853, 109.84261000000001 233.85846, 109.84261000000001 233.85846, 131.10246999999998 223.22853, 131.10246999999998 223.22853, 164.763915 233.85846, 164.763915 233.85845999999998, 198.42536 201.96866999999997, 198.42536 201.96866999999997, 187.79543 170.07888, 187.79543 170.07888, 198.42536 148.81902, 198.42536 148.81902, 187.79543 127.55915999999999, 187.79543 127.55915999999999, 198.42536 106.29929999999999, 198.42536 106.29929999999999, 187.79543 85.03944, 187.79543 85.03944, 198.42536 63.779579999999996, 198.42536 63.779579999999996, 187.79543 31.889789999999998, 187.79543 31.889789999999998, 198.42536 0, 198.42536 0, 164.763915 10.62993, 164.763915 10.62993, 131.10246999999998 0, 131.10246999999998 0, 109.84261000000001 10.62993, 109.84261000000001 10.62993, 88.58275 0, 88.58275 0, 67.32289 10.62993, 67.32289 10.62993, 33.661445 0, 33.661445 "
       id="polygon905" />
  </g>
  <!-- Left-->
  <g
     transform="translate(490.21693849999997, 22.5000185) "
     id="g911"
     style="fill:none;stroke:#ff0000;stroke-opacity:1;stroke-width:0.09375009;stroke-miterlimit:4;stroke-dasharray:none">
    <polygon
       style="stroke:#ff0000;fill:none;stroke-width:0.09375009;stroke-opacity:1;stroke-miterlimit:4;stroke-dasharray:none"
       points="10.62993, 0 30.118135, 0 30.118135, 10.62993 60.23627, 10.62993 60.23627, 0 81.49613, 0 81.49613, 10.62993 102.75599, 10.62993 102.75599, 0 124.01585, 0 124.01585, 10.62993 145.27571, 10.62993 145.27571, 0 166.53557, 0 166.53557, 10.62993 187.79542999999998, 10.62993 187.79542999999998, 0 209.05528999999999, 0 209.05528999999999, 10.62993 239.173425, 10.62993 239.173425, 0 258.66163, 0 258.66163, 33.661445 269.29156, 33.661445 269.29156, 67.32289 258.66163, 67.32289 258.66163, 88.58275 269.29156, 88.58275 269.29156, 109.84261000000001 258.66163, 109.84261000000001 258.66163, 131.10246999999998 269.29156, 131.10246999999998 269.29156, 164.763915 258.66163, 164.763915 258.66163, 198.42536 239.173425, 198.42536 239.173425, 187.79543 209.05528999999999, 187.79543 209.05528999999999, 198.42536 187.79542999999998, 198.42536 187.79542999999998, 187.79543 166.53557, 187.79543 166.53557, 198.42536 145.27571, 198.42536 145.27571, 187.79543 124.01585, 187.79543 124.01585, 198.42536 102.75599, 198.42536 102.75599, 187.79543 81.49613, 187.79543 81.49613, 198.42536 60.23627, 198.42536 60.23627, 187.79543 30.118135, 187.79543 30.118135, 198.42536 10.62993, 198.42536 10.62993, 164.763915 0, 164.763915 0, 131.10246999999998 10.62993, 131.10246999999998 10.62993, 109.84261000000001 0, 109.84261000000001 0, 88.58275 10.62993, 88.58275 10.62993, 67.32289 0, 67.32289 0, 33.661445 10.62993, 33.661445 "
       id="polygon909" />
  </g>
  <!-- Right-->
  <g
     transform="translate(490.21693849999997, 220.9253785) "
     id="g915"
     style="fill:none;stroke:#ff0000;stroke-opacity:1;stroke-width:0.09375009;stroke-miterlimit:4;stroke-dasharray:none">
    <polygon
       style="stroke:#ff0000;fill:none;stroke-width:0.09375009;stroke-opacity:1;stroke-miterlimit:4;stroke-dasharray:none"
       points="10.62993, 0 30.118135, 0 30.118135, 10.62993 60.23627, 10.62993 60.23627, 0 81.49613, 0 81.49613, 10.62993 102.75599, 10.62993 102.75599, 0 124.01585, 0 124.01585, 10.62993 145.27571, 10.62993 145.27571, 0 166.53557, 0 166.53557, 10.62993 187.79542999999998, 10.62993 187.79542999999998, 0 209.05528999999999, 0 209.05528999999999, 10.62993 239.173425, 10.62993 239.173425, 0 258.66163, 0 258.66163, 33.661445 269.29156, 33.661445 269.29156, 67.32289 258.66163, 67.32289 258.66163, 88.58275 269.29156, 88.58275 269.29156, 109.84261000000001 258.66163, 109.84261000000001 258.66163, 131.10246999999998 269.29156, 131.10246999999998 269.29156, 164.763915 258.66163, 164.763915 258.66163, 198.42536 239.173425, 198.42536 239.173425, 187.79543 209.05528999999999, 187.79543 209.05528999999999, 198.42536 187.79542999999998, 198.42536 187.79542999999998, 187.79543 166.53557, 187.79543 166.53557, 198.42536 145.27571, 198.42536 145.27571, 187.79543 124.01585, 187.79543 124.01585, 198.42536 102.75599, 198.42536 102.75599, 187.79543 81.49613, 187.79543 81.49613, 198.42536 60.23627, 198.42536 60.23627, 187.79543 30.118135, 187.79543 30.118135, 198.42536 10.62993, 198.42536 10.62993, 164.763915 0, 164.763915 0, 131.10246999999998 10.62993, 131.10246999999998 10.62993, 109.84261000000001 0, 109.84261000000001 0, 88.58275 10.62993, 88.58275 10.62993, 67.32289 0, 67.32289 0, 33.661445 10.62993, 33.661445 "
       id="polygon913" />
  </g>
  <!-- Top-->
  <g
     transform="translate(22.5000185, 220.9253785) "
     id="g919"
     style="fill:none;stroke:#ff0000;stroke-opacity:1;stroke-width:0.09375009;stroke-miterlimit:4;stroke-dasharray:none">
    <polygon
       style="stroke:#ff0000;fill:none;stroke-width:0.09375009;stroke-opacity:1;stroke-miterlimit:4;stroke-dasharray:none"
       points="10.62993, 10.62993 31.889789999999998, 10.62993 31.889789999999998, 0 63.779579999999996, 0 63.779579999999996, 10.62993 85.03944, 10.62993 85.03944, 0 106.29929999999999, 0 106.29929999999999, 10.62993 127.55915999999999, 10.62993 127.55915999999999, 0 148.81902, 0 148.81902, 10.62993 170.07888, 10.62993 170.07888, 0 201.96866999999997, 0 201.96866999999997, 10.62993 223.22853, 10.62993 223.22853, 30.118135 233.85846, 30.118135 233.85846, 60.23627 223.22853, 60.23627 223.22853, 81.49613 233.85846, 81.49613 233.85846, 102.75599 223.22853, 102.75599 223.22853, 124.01585 233.85846, 124.01585 233.85846, 145.27571 223.22853, 145.27571 223.22853, 166.53557 233.85846, 166.53557 233.85846, 187.79542999999998 223.22853, 187.79542999999998 223.22853, 209.05528999999999 233.85846, 209.05528999999999 233.85846, 239.173425 223.22853, 239.173425 223.22852999999998, 258.66163 201.96866999999997, 258.66163 201.96866999999997, 269.29156 170.07888, 269.29156 170.07888, 258.66163 148.81902, 258.66163 148.81902, 269.29156 127.55915999999999, 269.29156 127.55915999999999, 258.66163 106.29929999999999, 258.66163 106.29929999999999, 269.29156 85.03944, 269.29156 85.03944, 258.66163 63.779579999999996, 258.66163 63.779579999999996, 269.29156 31.889789999999998, 269.29156 31.889789999999998, 258.66163 10.62993, 258.66163 10.62993, 239.173425 0, 239.173425 0, 209.05528999999999 10.62993, 209.05528999999999 10.62993, 187.79542999999998 0, 187.79542999999998 0, 166.53557 10.62993, 166.53557 10.62993, 145.27571 0, 145.27571 0, 124.01585 10.62993, 124.01585 10.62993, 102.75599 0, 102.75599 0, 81.49613 10.62993, 81.49613 10.62993, 60.23627 0, 60.23627 0, 30.118135 10.62993, 30.118135 "
       id="polygon917" />
  </g>
  <!-- Bottom-->
  <g
     transform="translate(256.3584785, 220.9253785) "
     id="g923"
     style="fill:none;stroke:#ff0000;stroke-opacity:1;stroke-width:0.09375009;stroke-miterlimit:4;stroke-dasharray:none">
    <polygon
       style="stroke:#ff0000;fill:none;stroke-width:0.09375009;stroke-opacity:1;stroke-miterlimit:4;stroke-dasharray:none"
       points="10.62993, 10.62993 31.889789999999998, 10.62993 31.889789999999998, 0 63.779579999999996, 0 63.779579999999996, 10.62993 85.03944, 10.62993 85.03944, 0 106.29929999999999, 0 106.29929999999999, 10.62993 127.55915999999999, 10.62993 127.55915999999999, 0 148.81902, 0 148.81902, 10.62993 170.07888, 10.62993 170.07888, 0 201.96866999999997, 0 201.96866999999997, 10.62993 223.22853, 10.62993 223.22853, 30.118135 233.85846, 30.118135 233.85846, 60.23627 223.22853, 60.23627 223.22853, 81.49613 233.85846, 81.49613 233.85846, 102.75599 223.22853, 102.75599 223.22853, 124.01585 233.85846, 124.01585 233.85846, 145.27571 223.22853, 145.27571 223.22853, 166.53557 233.85846, 166.53557 233.85846, 187.79542999999998 223.22853, 187.79542999999998 223.22853, 209.05528999999999 233.85846, 209.05528999999999 233.85846, 239.173425 223.22853, 239.173425 223.22852999999998, 258.66163 201.96866999999997, 258.66163 201.96866999999997, 269.29156 170.07888, 269.29156 170.07888, 258.66163 148.81902, 258.66163 148.81902, 269.29156 127.55915999999999, 269.29156 127.55915999999999, 258.66163 106.29929999999999, 258.66163 106.29929999999999, 269.29156 85.03944, 269.29156 85.03944, 258.66163 63.779579999999996, 258.66163 63.779579999999996, 269.29156 31.889789999999998, 269.29156 31.889789999999998, 258.66163 10.62993, 258.66163 10.62993, 239.173425 0, 239.173425 0, 209.05528999999999 10.62993, 209.05528999999999 10.62993, 187.79542999999998 0, 187.79542999999998 0, 166.53557 10.62993, 166.53557 10.62993, 145.27571 0, 145.27571 0, 124.01585 10.62993, 124.01585 10.62993, 102.75599 0, 102.75599 0, 81.49613 10.62993, 81.49613 10.62993, 60.23627 0, 60.23627 0, 30.118135 10.62993, 30.118135 "
       id="polygon921" />
  </g>
  <g
     transform="translate(-106.54971,-34.106575)"
     id="g896"
     style="fill:#000000;fill-opacity:1;stroke:none;stroke-width:0.35433102;stroke-miterlimit:4;stroke-dasharray:none">
    <text
       id="text76"
       y="179.48073"
       x="405.54697"
       style="font-style:normal;font-weight:normal;font-size:37.50003052px;line-height:1.25;font-family:sans-serif;letter-spacing:0px;word-spacing:0px;fill:#000000;fill-opacity:1;stroke:none;stroke-width:0.35433102;stroke-miterlimit:4;stroke-dasharray:none;stroke-opacity:1"
       xml:space="preserve"><tspan
         style="font-size:60.00005341px;fill:#000000;fill-opacity:1;stroke:none;stroke-width:0.35433102;stroke-miterlimit:4;stroke-dasharray:none;stroke-opacity:1"
         y="179.48073"
         x="405.54697"
         id="tspan74"
         sodipodi:role="line">F  LL</tspan></text>
  </g>
  <flowRoot
     xml:space="preserve"
     id="flowRoot886"
     style="font-style:normal;font-weight:normal;font-size:40px;line-height:1.25;font-family:sans-serif;letter-spacing:0px;word-spacing:0px;fill:#000000;fill-opacity:1;stroke:none;stroke-width:0.37652317;stroke-miterlimit:4;stroke-dasharray:none;stroke-opacity:1"
     transform="matrix(1.3034733,0,0,0.6794113,-272.09684,25.889347)"><flowRegion
       id="flowRegion888"
       style="fill:#000000;fill-opacity:1;stroke:none;stroke-width:0.37652317;stroke-miterlimit:4;stroke-dasharray:none;stroke-opacity:1"><rect
         id="rect890"
         width="38.520309"
         height="63.94371"
         x="467.63654"
         y="104.77524"
         style="fill:#000000;fill-opacity:1;stroke:none;stroke-width:0.37652317;stroke-miterlimit:4;stroke-dasharray:none;stroke-opacity:1" /></flowRegion><flowPara
       id="flowPara892">U</flowPara></flowRoot>  <flowRoot
     xml:space="preserve"
     id="flowRoot894"
     style="font-style:normal;font-weight:normal;font-size:40px;line-height:1.25;font-family:sans-serif;letter-spacing:0px;word-spacing:0px;fill:#000000;fill-opacity:1;stroke:none;stroke-width:0.44979757;stroke-miterlimit:4;stroke-dasharray:none;stroke-opacity:1"
     transform="matrix(0.94242884,0,0,0.6584693,-90.651187,-21.381775)"><flowRegion
       id="flowRegion896"
       style="fill:#000000;fill-opacity:1;stroke:none;stroke-width:0.44979757;stroke-miterlimit:4;stroke-dasharray:none;stroke-opacity:1"><rect
         id="rect898"
         width="55.469242"
         height="56.239651"
         x="466.09573"
         y="215.71373"
         style="fill:#000000;fill-opacity:1;stroke:none;stroke-width:0.44979757;stroke-miterlimit:4;stroke-dasharray:none;stroke-opacity:1" /></flowRegion><flowPara
       id="flowPara900">I</flowPara></flowRoot></svg>
