<?xml version="1.0" encoding="UTF-8" standalone="no"?>
<svg
   xmlns:dc="http://purl.org/dc/elements/1.1/"
   xmlns:cc="http://creativecommons.org/ns#"
   xmlns:rdf="http://www.w3.org/1999/02/22-rdf-syntax-ns#"
   xmlns:svg="http://www.w3.org/2000/svg"
   xmlns="http://www.w3.org/2000/svg"
   xmlns:sodipodi="http://sodipodi.sourceforge.net/DTD/sodipodi-0.dtd"
   xmlns:inkscape="http://www.inkscape.org/namespaces/inkscape"
   version="1.1"
   width="250.7mm"
   height="164.7mm"
   viewBox=" 0 0 888.307817 583.5831569999999"
   id="svg66"
   sodipodi:docname="caseplans.svg"
   inkscape:version="0.92.2 (5c3e80d, 2017-08-06)">
  <metadata
     id="metadata72">
    <rdf:RDF>
      <cc:Work
         rdf:about="">
        <dc:format>image/svg+xml</dc:format>
        <dc:type
           rdf:resource="http://purl.org/dc/dcmitype/StillImage" />
        <dc:title />
      </cc:Work>
    </rdf:RDF>
  </metadata>
  <defs
     id="defs70" />
  <sodipodi:namedview
     pagecolor="#ffffff"
     bordercolor="#666666"
     borderopacity="1"
     objecttolerance="10"
     gridtolerance="10"
     guidetolerance="10"
     inkscape:pageopacity="0"
     inkscape:pageshadow="2"
     inkscape:window-width="1920"
     inkscape:window-height="1001"
     id="namedview68"
     showgrid="false"
     inkscape:zoom="2.5960332"
     inkscape:cx="522.17616"
     inkscape:cy="447.39633"
     inkscape:window-x="-9"
     inkscape:window-y="-9"
     inkscape:window-maximized="1"
     inkscape:current-layer="svg66"
     inkscape:measure-start="662.549,432.968"
     inkscape:measure-end="587.435,433.739" />
  <!-- Front-->
  <g
     transform="translate(22.5000185, 22.5000185) "
     id="g44"
     style="stroke:#ff0000;stroke-opacity:1;fill:none;stroke-width:0.35433102;stroke-miterlimit:4;stroke-dasharray:none">
    <polygon
       style="stroke:#ff0000;fill:none;stroke-width:0.35433102;stroke-opacity:1;stroke-miterlimit:4;stroke-dasharray:none"
       points="0, 0 40.748065, 0 40.748065, 10.62993 81.49613, 10.62993 81.49613, 0 109.84261, 0 109.84261, 10.62993 138.18909, 10.62993 138.18909, 0 166.53557, 0 166.53557, 10.62993 194.88205, 10.62993 194.88205, 0 223.22852999999998, 0 223.22852999999998, 10.62993 263.976595, 10.62993 263.976595, 0 304.72466, 0 304.72466, 46.06303 294.09472999999997, 46.06303 294.09472999999997, 92.12606 304.72466, 92.12606 304.72466, 120.47254 294.09472999999997, 120.47254 294.09472999999997, 148.81902 304.72466, 148.81902 304.72466, 177.1655 294.09472999999997, 177.1655 294.09472999999997, 223.22852999999998 304.72466, 223.22852999999998 304.72466, 269.29156 263.976595, 269.29156 263.976595, 258.66163 223.22852999999998, 258.66163 223.22852999999998, 269.29156 194.88205, 269.29156 194.88205, 258.66163 166.53557, 258.66163 166.53557, 269.29156 138.18909, 269.29156 138.18909, 258.66163 109.84261, 258.66163 109.84261, 269.29156 81.49613, 269.29156 81.49613, 258.66163 40.748065, 258.66163 40.748065, 269.29156 0, 269.29156 0, 223.22852999999998 10.62993, 223.22852999999998 10.62993, 177.1655 0, 177.1655 0, 148.81902 10.62993, 148.81902 10.62993, 120.47254 0, 120.47254 0, 92.12606 10.62993, 92.12606 10.62993, 46.06303 0, 46.06303 "
       id="polygon42" />
  </g>
  <!-- Back-->
  <g
     transform="translate(327.2246785, 22.5000185) "
     id="g48"
     style="stroke:#ff0000;stroke-opacity:1;fill:none;stroke-width:0.35433102;stroke-miterlimit:4;stroke-dasharray:none">
    <polygon
       style="stroke:#ff0000;fill:none;stroke-width:0.35433102;stroke-opacity:1;stroke-miterlimit:4;stroke-dasharray:none"
       points="0, 0 40.748065, 0 40.748065, 10.62993 81.49613, 10.62993 81.49613, 0 109.84261, 0 109.84261, 10.62993 138.18909, 10.62993 138.18909, 0 166.53557, 0 166.53557, 10.62993 194.88205, 10.62993 194.88205, 0 223.22852999999998, 0 223.22852999999998, 10.62993 263.976595, 10.62993 263.976595, 0 304.72466, 0 304.72466, 46.06303 294.09472999999997, 46.06303 294.09472999999997, 92.12606 304.72466, 92.12606 304.72466, 120.47254 294.09472999999997, 120.47254 294.09472999999997, 148.81902 304.72466, 148.81902 304.72466, 177.1655 294.09472999999997, 177.1655 294.09472999999997, 223.22852999999998 304.72466, 223.22852999999998 304.72466, 269.29156 263.976595, 269.29156 263.976595, 258.66163 223.22852999999998, 258.66163 223.22852999999998, 269.29156 194.88205, 269.29156 194.88205, 258.66163 166.53557, 258.66163 166.53557, 269.29156 138.18909, 269.29156 138.18909, 258.66163 109.84261, 258.66163 109.84261, 269.29156 81.49613, 269.29156 81.49613, 258.66163 40.748065, 258.66163 40.748065, 269.29156 0, 269.29156 0, 223.22852999999998 10.62993, 223.22852999999998 10.62993, 177.1655 0, 177.1655 0, 148.81902 10.62993, 148.81902 10.62993, 120.47254 0, 120.47254 0, 92.12606 10.62993, 92.12606 10.62993, 46.06303 0, 46.06303 "
       id="polygon46" />
  </g>
  <!-- Left-->
  <g
     transform="translate(631.9493385, 22.5000185) "
     id="g52"
     style="stroke:#ff0000;stroke-opacity:1;fill:none;stroke-width:0.35433102;stroke-miterlimit:4;stroke-dasharray:none">
    <polygon
       style="stroke:#ff0000;fill:none;stroke-width:0.35433102;stroke-opacity:1;stroke-miterlimit:4;stroke-dasharray:none"
       points="10.62993, 0 37.204755, 0 37.204755, 10.62993 74.40951, 10.62993 74.40951, 0 102.75599, 0 102.75599, 10.62993 131.10246999999998, 10.62993 131.10246999999998, 0 159.44895, 0 159.44895, 10.62993 196.653705, 10.62993 196.653705, 0 223.22853, 0 223.22853, 46.06303 233.85846, 46.06303 233.85846, 92.12606 223.22853, 92.12606 223.22853, 120.47254 233.85846, 120.47254 233.85846, 148.81902 223.22853, 148.81902 223.22853, 177.1655 233.85846, 177.1655 233.85846, 223.22852999999998 223.22853, 223.22852999999998 223.22852999999998, 269.29156 196.653705, 269.29156 196.653705, 258.66163 159.44895, 258.66163 159.44895, 269.29156 131.10246999999998, 269.29156 131.10246999999998, 258.66163 102.75599, 258.66163 102.75599, 269.29156 74.40951, 269.29156 74.40951, 258.66163 37.204755, 258.66163 37.204755, 269.29156 10.62993, 269.29156 10.62993, 223.22852999999998 0, 223.22852999999998 0, 177.1655 10.62993, 177.1655 10.62993, 148.81902 0, 148.81902 0, 120.47254 10.62993, 120.47254 10.62993, 92.12606 0, 92.12606 0, 46.06303 10.62993, 46.06303 "
       id="polygon50" />
  </g>
  <!-- Right-->
  <g
     transform="translate(631.9493385, 291.79157849999996) "
     id="g56"
     style="stroke:#ff0000;stroke-opacity:1;fill:none;stroke-width:0.35433102;stroke-miterlimit:4;stroke-dasharray:none">
    <polygon
       style="stroke:#ff0000;fill:none;stroke-width:0.35433102;stroke-opacity:1;stroke-miterlimit:4;stroke-dasharray:none"
       points="10.62993, 0 37.204755, 0 37.204755, 10.62993 74.40951, 10.62993 74.40951, 0 102.75599, 0 102.75599, 10.62993 131.10246999999998, 10.62993 131.10246999999998, 0 159.44895, 0 159.44895, 10.62993 196.653705, 10.62993 196.653705, 0 223.22853, 0 223.22853, 46.06303 233.85846, 46.06303 233.85846, 92.12606 223.22853, 92.12606 223.22853, 120.47254 233.85846, 120.47254 233.85846, 148.81902 223.22853, 148.81902 223.22853, 177.1655 233.85846, 177.1655 233.85846, 223.22852999999998 223.22853, 223.22852999999998 223.22852999999998, 269.29156 196.653705, 269.29156 196.653705, 258.66163 159.44895, 258.66163 159.44895, 269.29156 131.10246999999998, 269.29156 131.10246999999998, 258.66163 102.75599, 258.66163 102.75599, 269.29156 74.40951, 269.29156 74.40951, 258.66163 37.204755, 258.66163 37.204755, 269.29156 10.62993, 269.29156 10.62993, 223.22852999999998 0, 223.22852999999998 0, 177.1655 10.62993, 177.1655 10.62993, 148.81902 0, 148.81902 0, 120.47254 10.62993, 120.47254 10.62993, 92.12606 0, 92.12606 0, 46.06303 10.62993, 46.06303 "
       id="polygon54" />
  </g>
  <!-- Top-->
  <g
     transform="translate(22.5000185, 291.79157849999996) "
     id="g60"
     style="stroke:#ff0000;stroke-opacity:1;fill:none;stroke-width:0.35433102;stroke-miterlimit:4;stroke-dasharray:none">
    <polygon
       style="stroke:#ff0000;fill:none;stroke-width:0.35433102;stroke-opacity:1;stroke-miterlimit:4;stroke-dasharray:none"
       points="10.62993, 10.62993 40.748065, 10.62993 40.748065, 0 81.49613, 0 81.49613, 10.62993 109.84261, 10.62993 109.84261, 0 138.18909, 0 138.18909, 10.62993 166.53557, 10.62993 166.53557, 0 194.88205, 0 194.88205, 10.62993 223.22852999999998, 10.62993 223.22852999999998, 0 263.976595, 0 263.976595, 10.62993 294.09472999999997, 10.62993 294.09472999999997, 37.204755 304.72466, 37.204755 304.72466, 74.40951 294.09472999999997, 74.40951 294.09472999999997, 102.75599 304.72466, 102.75599 304.72466, 131.10246999999998 294.09472999999997, 131.10246999999998 294.09472999999997, 159.44895 304.72466, 159.44895 304.72466, 196.653705 294.09472999999997, 196.653705 294.09472999999997, 223.22853 263.976595, 223.22853 263.976595, 233.85846 223.22852999999998, 233.85846 223.22852999999998, 223.22853 194.88205, 223.22853 194.88205, 233.85846 166.53557, 233.85846 166.53557, 223.22853 138.18909, 223.22853 138.18909, 233.85846 109.84261, 233.85846 109.84261, 223.22853 81.49613, 223.22853 81.49613, 233.85846 40.748065, 233.85846 40.748065, 223.22853 10.62993, 223.22852999999998 10.62993, 196.653705 0, 196.653705 0, 159.44895 10.62993, 159.44895 10.62993, 131.10246999999998 0, 131.10246999999998 0, 102.75599 10.62993, 102.75599 10.62993, 74.40951 0, 74.40951 0, 37.204755 10.62993, 37.204755 "
       id="polygon58" />
  </g>
  <!-- Bottom-->
  <g
     transform="translate(327.2246785, 291.79157849999996) "
     id="g64"
     style="stroke:#ff0000;stroke-opacity:1;fill:none;stroke-width:0.35433102;stroke-miterlimit:4;stroke-dasharray:none">
    <polygon
       style="stroke:#ff0000;fill:none;stroke-width:0.35433102;stroke-opacity:1;stroke-miterlimit:4;stroke-dasharray:none"
       points="10.62993, 10.62993 40.748065, 10.62993 40.748065, 0 81.49613, 0 81.49613, 10.62993 109.84261, 10.62993 109.84261, 0 138.18909, 0 138.18909, 10.62993 166.53557, 10.62993 166.53557, 0 194.88205, 0 194.88205, 10.62993 223.22852999999998, 10.62993 223.22852999999998, 0 263.976595, 0 263.976595, 10.62993 294.09472999999997, 10.62993 294.09472999999997, 37.204755 304.72466, 37.204755 304.72466, 74.40951 294.09472999999997, 74.40951 294.09472999999997, 102.75599 304.72466, 102.75599 304.72466, 131.10246999999998 294.09472999999997, 131.10246999999998 294.09472999999997, 159.44895 304.72466, 159.44895 304.72466, 196.653705 294.09472999999997, 196.653705 294.09472999999997, 223.22853 263.976595, 223.22853 263.976595, 233.85846 223.22852999999998, 233.85846 223.22852999999998, 223.22853 194.88205, 223.22853 194.88205, 233.85846 166.53557, 233.85846 166.53557, 223.22853 138.18909, 223.22853 138.18909, 233.85846 109.84261, 233.85846 109.84261, 223.22853 81.49613, 223.22853 81.49613, 233.85846 40.748065, 233.85846 40.748065, 223.22853 10.62993, 223.22852999999998 10.62993, 196.653705 0, 196.653705 0, 159.44895 10.62993, 159.44895 10.62993, 131.10246999999998 0, 131.10246999999998 0, 102.75599 10.62993, 102.75599 10.62993, 74.40951 0, 74.40951 0, 37.204755 10.62993, 37.204755 "
       id="polygon62" />
  </g>
  <g
     id="g896">
    <text
       id="text76"
       y="179.48073"
       x="405.54697"
       style="font-style:normal;font-weight:normal;font-size:37.50003052px;line-height:1.25;font-family:sans-serif;letter-spacing:0px;word-spacing:0px;fill:none;fill-opacity:1;stroke:#ff0000;stroke-width:0.35433102;stroke-miterlimit:4;stroke-dasharray:none;stroke-opacity:1"
       xml:space="preserve"><tspan
         style="font-size:60.00005341px;fill:none;stroke:#ff0000;stroke-width:0.35433102;stroke-miterlimit:4;stroke-dasharray:none;stroke-opacity:1"
         y="179.48073"
         x="405.54697"
         id="tspan74"
         sodipodi:role="line">F  LL</tspan></text>
  </g>
  <flowRoot
     xml:space="preserve"
     id="flowRoot886"
     style="font-style:normal;font-weight:normal;font-size:40px;line-height:1.25;font-family:sans-serif;letter-spacing:0px;word-spacing:0px;fill:none;fill-opacity:1;stroke:#ff0000;stroke-width:0.37795275;stroke-miterlimit:4;stroke-dasharray:none;stroke-opacity:1"
     transform="matrix(1.3034734,0,0,0.67941133,-165.54714,59.995925)"><flowRegion
       id="flowRegion888"
       style="fill:none;stroke:#ff0000;stroke-width:0.37795275;stroke-miterlimit:4;stroke-dasharray:none;stroke-opacity:1"><rect
         id="rect890"
         width="38.520309"
         height="63.94371"
         x="467.63654"
         y="104.77524"
         style="fill:none;stroke:#ff0000;stroke-width:0.37795275;stroke-miterlimit:4;stroke-dasharray:none;stroke-opacity:1" /></flowRegion><flowPara
       id="flowPara892">U</flowPara></flowRoot>  <flowRoot
     xml:space="preserve"
     id="flowRoot894"
     style="font-style:normal;font-weight:normal;font-size:40px;line-height:1.25;font-family:sans-serif;letter-spacing:0px;word-spacing:0px;fill:none;fill-opacity:1;stroke:#ff0000;stroke-width:0.37795275;stroke-miterlimit:4;stroke-dasharray:none;stroke-opacity:1"
     transform="matrix(0.94242892,0,0,0.65846933,15.89852,12.7248)"><flowRegion
       id="flowRegion896"
       style="fill:none;stroke:#ff0000;stroke-width:0.37795275;stroke-miterlimit:4;stroke-dasharray:none;stroke-opacity:1"><rect
         id="rect898"
         width="55.469242"
         height="56.239651"
         x="466.09573"
         y="215.71373"
         style="fill:none;stroke:#ff0000;stroke-width:0.37795275;stroke-miterlimit:4;stroke-dasharray:none;stroke-opacity:1" /></flowRegion><flowPara
       id="flowPara900">I</flowPara></flowRoot></svg>
